<svg width="45" height="30" viewBox="0 0 45 30" fill="none" xmlns="http://www.w3.org/2000/svg">
<rect y="0.0874023" width="45" height="29" rx="4" fill="#1B77C8"/>
<path d="M8.06289 10.0874L4 19.0784H8.86385L9.46683 17.6449H10.8451L11.4481 19.0784H16.8018V17.9843L17.2789 19.0784H20.0482L20.5253 17.9612V19.0784H31.6596L33.0135 17.6821L34.2812 19.0784L40 19.09L35.9243 14.608L40 10.0874H34.3699L33.052 11.4579L31.8242 10.0874H19.7115L18.6714 12.4081L17.6069 10.0874H12.7532V11.1443L12.2132 10.0874H8.06289ZM9.00402 11.3641H11.3749L14.0698 17.461V11.3641H16.667L18.7485 15.7356L20.6669 11.3641H23.2511V17.8158H21.6786L21.6658 12.7603L19.3733 17.8158H17.9667L15.6614 12.7603V17.8158H12.4266L11.8133 16.3694H8.50004L7.88803 17.8145H6.15483L9.00402 11.3641ZM24.6897 11.3641H31.0836L33.0391 13.4765L35.0577 11.3641H37.0133L34.042 14.6068L37.0133 17.812H34.969L33.0135 15.6751L30.9846 17.812H24.6897V11.3641ZM10.1574 12.4557L9.06578 15.0323H11.2477L10.1574 12.4557ZM26.2686 12.7V13.8777H29.7568V15.1904H26.2686V16.4762H30.1811L31.999 14.5824L30.2582 12.6988H26.2686V12.7Z" fill="white"/>
</svg>
