<svg width="105" height="20" viewBox="0 0 105 20" fill="none" xmlns="http://www.w3.org/2000/svg"><path d="M3.47164 0V7.01904C4.14861 6.41246 4.84294 5.90985 5.51991 5.56324C6.30103 5.21662 7.06479 5.06064 7.91535 5.06064C9.80739 5.06064 11.3523 5.73655 12.6368 7.1057C13.9213 8.47484 14.6156 10.2599 14.6156 12.513C14.6156 14.662 13.9386 16.3778 12.6368 17.8162C11.2655 19.272 9.70324 19.9653 7.91535 19.9653C7.04744 19.9653 6.37046 19.792 5.58934 19.532C4.91237 19.272 4.21805 18.7521 3.54108 18.0762V19.532H0V0H3.47164ZM7.16894 8.40552C6.05802 8.40552 5.12067 8.75214 4.33955 9.5147C3.55843 10.2773 3.22863 11.3171 3.22863 12.513C3.22863 13.7954 3.57579 14.8353 4.33955 15.5979C5.10331 16.3604 5.95387 16.811 7.16894 16.811C8.27987 16.811 9.14778 16.3778 9.9289 15.5979C10.71 14.818 11.0398 13.7954 11.0398 12.5996C11.0398 11.3864 10.6927 10.3812 9.9289 9.60135C9.21721 8.76947 8.27987 8.40552 7.16894 8.40552Z" fill="#334155"></path><path d="M27.1839 5.51116H30.7076V19.6532H27.1839V18.1108C26.5069 18.7867 25.8126 19.2199 25.1356 19.5666C24.4587 19.8265 23.6776 19.9998 22.8096 19.9998C21.0044 19.9998 19.3727 19.3239 18.0882 17.8508C16.7169 16.395 16.1094 14.6966 16.1094 12.5475C16.1094 10.3292 16.7863 8.6134 18.0882 7.14027C19.3727 5.77112 20.9176 5.09521 22.8096 5.09521C23.6776 5.09521 24.424 5.26852 25.2051 5.59781C25.9862 5.94443 26.6632 6.3777 27.2534 7.05361V5.51116H27.1839ZM23.3998 8.40543C22.2889 8.40543 21.421 8.8387 20.6399 9.6186C19.9629 10.3985 19.5289 11.421 19.5289 12.6169C19.5289 13.83 19.8761 14.8352 20.6399 15.6151C21.4036 16.395 22.2542 16.8283 23.3998 16.8283C24.5108 16.8283 25.4481 16.395 26.1598 15.6151C26.9409 14.8352 27.2707 13.8127 27.2707 12.5302C27.2707 11.317 26.9235 10.3118 26.1598 9.53194C25.4655 8.76938 24.5281 8.40543 23.3998 8.40543Z" fill="#334155"></path><path d="M33.0174 5.51117H36.1071V7.31359C36.4543 6.63769 36.8882 6.10043 37.3916 5.70182C37.895 5.3552 38.5026 5.19922 39.1969 5.19922C39.6308 5.19922 40.1342 5.3032 40.655 5.54584L39.544 8.63075C39.1101 8.45744 38.7629 8.28413 38.5026 8.28413C37.9992 8.28413 37.4611 8.63075 37.1313 9.32399C36.7841 9.99989 36.5237 11.2997 36.5237 13.2581V13.934V19.6879H33V5.51117H33.0174Z" fill="#334155"></path><path d="M54.9207 8.33634L51.9178 9.94813C51.4144 9.34154 50.8068 9.01225 50.3035 8.73496C49.8001 8.47499 49.0884 8.38834 48.4114 8.38834C47.0401 8.38834 46.016 8.82161 45.1481 9.60151C44.2802 10.3814 43.933 11.4039 43.933 12.6864C43.933 13.8996 44.367 14.9048 45.1481 15.6153C45.9292 16.3952 46.9533 16.7245 48.2378 16.7245C49.8521 16.7245 51.0672 16.2219 51.9351 15.1128L54.7645 17.0018C53.2196 18.9776 51.0672 20.0001 48.3246 20.0001C45.8424 20.0001 43.8462 19.2202 42.4749 17.7817C41.1036 16.3432 40.3398 14.6102 40.3398 12.6344C40.3398 11.2653 40.687 9.98279 41.3813 8.87361C42.0583 7.76442 42.9956 6.82855 44.3149 6.11798C45.5299 5.44208 46.9013 5.07812 48.4461 5.07812C49.8174 5.07812 51.1019 5.33809 52.2129 5.94467C53.3238 6.55126 54.2438 7.29649 54.9207 8.33634Z" fill="#334155"></path><path d="M56.4679 0H59.9916V6.86306C60.6686 6.25647 61.3629 5.8232 62.0399 5.49391C62.7168 5.23395 63.4979 5.06064 64.1923 5.06064C65.5636 5.06064 66.7787 5.56323 67.716 6.51644C68.5839 7.38299 68.9311 8.56149 68.9311 10.2079V19.584H65.5115V13.3968C65.5115 11.7851 65.4074 10.6412 65.2511 10.0346C65.0775 9.42804 64.8172 8.99477 64.47 8.75214C64.1228 8.49217 63.6021 8.31886 63.0987 8.31886C62.4217 8.31886 61.7274 8.57883 61.2067 8.99477C60.7033 9.49737 60.3388 10.1039 60.0957 10.9705C59.9916 11.4038 59.9222 12.3396 59.9222 13.8994V19.5667H56.3984V0H56.4679Z" fill="#334155"></path><path d="M81.654 5.51116H85.1777V19.6532H81.654V18.1108C80.977 18.7867 80.2827 19.2199 79.6057 19.5666C78.9288 19.8265 78.1476 19.9998 77.3839 19.9998C75.5786 19.9998 73.9469 19.3239 72.6624 17.8508C71.2911 16.395 70.6836 14.6966 70.6836 12.5475C70.6836 10.3292 71.3606 8.6134 72.6624 7.14027C73.9469 5.77112 75.4918 5.09521 77.3839 5.09521C78.2518 5.09521 78.9982 5.26852 79.7793 5.59781C80.5604 5.94443 81.2374 6.3777 81.8276 7.05361V5.51116H81.654ZM77.9393 8.40543C76.8284 8.40543 75.9605 8.8387 75.1794 9.6186C74.5024 10.3985 74.0684 11.421 74.0684 12.6169C74.0684 13.83 74.4156 14.8352 75.1794 15.6151C75.9431 16.395 76.7937 16.8283 77.9393 16.8283C79.0503 16.8283 79.9876 16.395 80.6993 15.6151C81.4804 14.8352 81.8102 13.8127 81.8102 12.5302C81.8102 11.317 81.463 10.3118 80.6993 9.53194C80.005 8.76938 79.0503 8.40543 77.9393 8.40543Z" fill="#334155"></path><path d="M87.4705 5.51117H90.5602V7.31359C90.9074 6.63769 91.3414 6.10043 91.8448 5.70182C92.3481 5.3552 92.9557 5.19922 93.65 5.19922C94.084 5.19922 94.5873 5.3032 95.1081 5.54584L93.9972 8.63075C93.5632 8.45744 93.216 8.28413 92.9557 8.28413C92.4523 8.28413 91.9142 8.63075 91.5844 9.32399C91.2372 9.99989 90.9768 11.2997 90.9768 13.2581V13.934V19.6879H87.4531L87.4705 5.51117Z" fill="#334155"></path><path d="M98.4046 0.277344H102.015V5.5113H104.168V8.59621H102.015V19.7574H98.4046V8.59621H96.582V5.5113H98.3873V0.277344H98.4046Z" fill="#334155"></path></svg>