<svg width="47" height="20" viewBox="0 0 47 20" fill="none" xmlns="http://www.w3.org/2000/svg"><path d="M5.61824 5.46526V8.06491H11.0893V13.5007H5.61824V19.9407H0V0H11.9423L12.3248 5.46526H5.61824Z" fill="#334155"></path><path d="M28.3663 3.0654C30.2301 4.97616 31.1626 7.28273 31.1626 9.98463C31.1626 12.7061 30.23 15.0221 28.3663 16.9331C26.5021 18.8438 24.2537 19.7991 21.6211 19.7991C18.9691 19.7991 16.7107 18.8438 14.8469 16.9331C12.9827 15.0222 12.0508 12.7061 12.0508 9.98463C12.0508 7.28265 12.9827 4.97616 14.8469 3.0654C16.7107 1.15464 18.9691 0.199219 21.6211 0.199219C24.2537 0.199219 26.5021 1.15464 28.3663 3.0654ZM20.0068 13.9798C20.0068 14.4242 20.1699 14.81 20.4968 15.138C20.8233 15.4664 21.2175 15.6302 21.6787 15.6302C22.1399 15.6302 22.5291 15.4664 22.8462 15.138C23.1633 14.81 23.3219 14.4242 23.3219 13.9798V5.90257C23.3219 5.4394 23.1633 5.044 22.8462 4.71561C22.5291 4.38771 22.14 4.22344 21.6787 4.22344C21.2175 4.22344 20.8234 4.38771 20.4968 4.71561C20.1698 5.044 20.0068 5.4394 20.0068 5.90257V13.9798Z" fill="#334155"></path><path d="M39.9276 20L37.104 14.9482L34.3685 20H28.1914L34.0744 9.66022L28.5149 0H34.8686L37.1924 4.31311L39.5454 0H45.693L40.2513 9.60107L46.2519 19.9999H39.9276V20Z" fill="#334155"></path></svg>