<svg width="45" height="30" viewBox="0 0 45 30" fill="none" xmlns="http://www.w3.org/2000/svg">
<rect y="0.0874023" width="45" height="29" rx="4" fill="white"/>
<path d="M17.2422 7.20239H26.7628V22.7523H17.2422V7.20239Z" fill="#FF5F00"/>
<path d="M18.222 14.9788C18.2208 13.4815 18.5602 12.0035 19.2146 10.6568C19.8689 9.31001 20.821 8.12973 21.9989 7.20526C20.5401 6.05879 18.7881 5.34586 16.9433 5.14797C15.0985 4.95007 13.2352 5.27519 11.5664 6.08616C9.89764 6.89714 8.49068 8.16125 7.50634 9.73402C6.522 11.3068 6 13.1248 6 14.9802C6 16.8356 6.522 18.6536 7.50634 20.2263C8.49068 21.7991 9.89764 23.0632 11.5664 23.8742C13.2352 24.6852 15.0985 25.0103 16.9433 24.8124C18.7881 24.6145 20.5401 23.9016 21.9989 22.7551C20.8207 21.8303 19.8683 20.6496 19.214 19.3023C18.5596 17.9551 18.2204 16.4766 18.222 14.9788V14.9788Z" fill="#EB001B"/>
<path d="M38.0004 14.9786C38.0003 16.8341 37.4782 18.6522 36.4937 20.2251C35.5092 21.7979 34.102 23.062 32.433 23.8728C30.764 24.6837 28.9005 25.0086 27.0556 24.8104C25.2107 24.6122 23.4587 23.8989 22 22.7521C23.1774 21.8268 24.1292 20.6462 24.7837 19.2994C25.4383 17.9525 25.7783 16.4746 25.7783 14.9772C25.7783 13.4797 25.4383 12.0018 24.7837 10.655C24.1292 9.30817 23.1774 8.12757 22 7.20228C23.4587 6.05543 25.2107 5.34215 27.0556 5.14397C28.9005 4.94579 30.764 5.2707 32.433 6.08156C34.102 6.89242 35.5092 8.15652 36.4937 9.72935C37.4782 11.3022 38.0003 13.1203 38.0004 14.9758V14.9786Z" fill="#F79E1B"/>
</svg>
