<svg width="45" height="30" viewBox="0 0 45 30" fill="none" xmlns="http://www.w3.org/2000/svg">
<rect y="0.0874023" width="45" height="29" rx="4" fill="white"/>
<path d="M16.3965 20.5781L18.3225 9.28198H21.3953L19.4694 20.5781H16.3965Z" fill="#0058A0"/>
<path d="M30.6347 9.56348C30.0288 9.32544 29.0766 9.0874 27.8648 9.0874C24.8135 9.0874 22.6711 10.6238 22.6711 12.8095C22.6495 14.4325 24.2076 15.3414 25.3762 15.8824C26.5664 16.445 26.9775 16.7913 26.9775 17.289C26.9775 18.0464 26.0254 18.3926 25.1381 18.3926C23.9046 18.3926 23.2554 18.2195 22.2383 17.8084L21.8488 17.6352L21.416 20.1671C22.1301 20.4917 23.4718 20.7514 24.8568 20.7731C28.1028 20.7731 30.2019 19.2582 30.2235 16.9211C30.2452 15.6443 29.4228 14.6489 27.6484 13.8482C26.5664 13.3289 25.9172 12.9826 25.9172 12.4416C25.9172 11.9655 26.4798 11.4678 27.67 11.4678C28.6871 11.4462 29.4012 11.6626 29.9639 11.9006L30.2452 12.0305L30.6347 9.56348Z" fill="#0058A0"/>
<path d="M38.5343 9.30347H36.1539C35.4181 9.30347 34.8555 9.49823 34.5309 10.234L29.9648 20.578H33.1892C33.1892 20.578 33.7086 19.193 33.8384 18.89C34.1847 18.89 37.3225 18.89 37.7769 18.89C37.8635 19.2795 38.1448 20.578 38.1448 20.578H41.0013L38.5343 9.30347ZM34.7473 16.5745C35.007 15.9253 35.9808 13.4151 35.9808 13.4151C35.9591 13.4367 36.2405 12.7659 36.3919 12.3331L36.6084 13.3069C36.6084 13.3069 37.1926 16.0119 37.3225 16.5745H34.7473Z" fill="#0058A0"/>
<path d="M13.8222 9.30347L10.8143 17.0073L10.4897 15.4493C9.92702 13.6531 8.17417 11.6839 6.22656 10.7101L8.97485 20.5996H12.2425L17.0899 9.32511H13.8222" fill="#0058A0"/>
<path d="M7.99886 9.28198H3.04328L3 9.52002C6.87358 10.4505 9.42711 12.7228 10.4875 15.4278L9.40547 10.2341C9.21071 9.54166 8.6697 9.32526 7.99886 9.28198Z" fill="#FAA61A"/>
</svg>
